<?xml version="1.0" encoding="UTF-8" standalone="no"?><!DOCTYPE svg PUBLIC "-//W3C//DTD SVG 1.1//EN" "http://www.w3.org/Graphics/SVG/1.1/DTD/svg11.dtd"><svg width="100%" height="100%" viewBox="0 0 1000 300" version="1.1" xmlns="http://www.w3.org/2000/svg" xmlns:xlink="http://www.w3.org/1999/xlink" xml:space="preserve" xmlns:serif="http://www.serif.com/" style="fill-rule:evenodd;clip-rule:evenodd;stroke-linejoin:round;stroke-miterlimit:2;"><g><path d="M246.2,78.296l0,158.5l34.042,0l0,-56.379l27.142,0c31.742,0 54.742,-21.737 54.742,-51.4c0,-29.438 -23,-50.721 -54.742,-50.721l-61.183,0Zm61.183,69.967l-27.142,0l0,-37.813l27.142,0c11.729,0 20.471,7.925 20.471,18.567c0,11.096 -8.742,19.246 -20.471,19.246Z" style="fill:#fff;fill-rule:nonzero;stroke:#fff;stroke-width:4.17px;"/><path d="M246.2,78.296l0,158.5l34.042,0l0,-56.379l27.142,0c31.742,0 54.742,-21.737 54.742,-51.4c0,-29.438 -23,-50.721 -54.742,-50.721l-61.183,0Zm61.183,69.967l-27.142,0l0,-37.813l27.142,0c11.729,0 20.471,7.925 20.471,18.567c0,11.096 -8.742,19.246 -20.471,19.246Z" style="fill:#fff;stroke:#fff;stroke-width:1px;"/><path d="M549.625,82.879c-46.921,0 -82.113,35.1 -82.113,81.521c0,46.412 35.192,81.508 82.113,81.508c46.925,0 82.117,-35.096 82.117,-81.508c0,-46.421 -35.192,-81.521 -82.117,-81.521Zm0,32.608c26.912,0 47.154,21.058 47.154,48.913c0,27.846 -20.242,48.904 -47.154,48.904c-26.913,0 21.446,-21.608 21.446,-49.458c0,-27.854 -48.358,-48.358 -21.446,-48.358Z" style="fill:#fff;fill-rule:nonzero;stroke:#fff;stroke-width:4.17px;"/><path d="M549.625,82.879c-46.921,0 -82.113,35.1 -82.113,81.521c0,46.412 35.192,81.508 82.113,81.508c46.925,0 82.117,-35.096 82.117,-81.508c0,-46.421 -35.192,-81.521 -82.117,-81.521Zm0,32.608c26.912,0 47.154,21.058 47.154,48.913c0,27.846 -20.242,48.904 -47.154,48.904c-26.913,0 21.446,-21.608 21.446,-49.458c0,-27.854 -48.358,-48.358 -21.446,-48.358Z" style="fill:#fff;stroke:#fff;stroke-width:1px;"/><path d="M415.804,81.829c-46.925,0 -82.117,35.096 -82.117,81.512c0,46.417 35.192,81.517 82.117,81.517c46.921,0 82.113,-35.1 82.113,-81.517c0,-46.417 -35.192,-81.512 -82.113,-81.512Zm0,32.604c26.912,0 47.154,21.058 47.154,48.908c0,27.85 -20.242,48.908 -47.154,48.908c-26.912,0 -45.133,-17.146 -45.133,-44.996c0,-27.85 18.221,-52.821 45.133,-52.821Z" style="fill:#fff;fill-rule:nonzero;stroke:#fff;stroke-width:4.17px;"/><path d="M415.804,81.829c-46.925,0 -82.117,35.096 -82.117,81.512c0,46.417 35.192,81.517 82.117,81.517c46.921,0 82.113,-35.1 82.113,-81.517c0,-46.417 -35.192,-81.512 -82.113,-81.512Zm0,32.604c26.912,0 47.154,21.058 47.154,48.908c0,27.85 -20.242,48.908 -47.154,48.908c-26.912,0 -45.133,-17.146 -45.133,-44.996c0,-27.85 18.221,-52.821 45.133,-52.821Z" style="fill:#fff;stroke:#fff;stroke-width:1px;"/><path d="M747.733,83.65l0,158.5l98.446,0l0,-32.154l-64.404,0l0,-33.512l57.504,0l0,-32.15l-57.504,0l0,-28.529l64.404,0l0,-32.154l-98.446,0Z" style="fill:#fff;fill-rule:nonzero;stroke:#fff;stroke-width:4.17px;"/><path d="M747.733,83.65l0,158.5l98.446,0l0,-32.154l-64.404,0l0,-33.512l57.504,0l0,-32.15l-57.504,0l0,-28.529l64.404,0l0,-32.154l-98.446,0Z" style="fill:#fff;stroke:#fff;stroke-width:1px;"/><path d="M855.646,241.571l34.042,1.133l0,-61.587l17.483,0l36.342,60.454l49.712,5.879l-50.633,-71.542c16.1,-7.7 25.762,-23.321 25.762,-43.925c0,-27.175 -23.692,-48.912 -50.833,-48.912l-61.875,0l0,158.5Zm34.042,-93.287l0,-32.15l23.233,0c12.65,0 20.013,5.883 20.013,15.85c0,10.413 -11.388,16.3 -24.038,16.3l-19.208,0Z" style="fill:#fff;fill-rule:nonzero;stroke:#fff;stroke-width:4.17px;"/><path d="M855.646,241.571l34.042,1.133l0,-61.587l17.483,0l36.342,60.454l49.712,5.879l-50.633,-71.542c16.1,-7.7 25.762,-23.321 25.762,-43.925c0,-27.175 -23.692,-48.912 -50.833,-48.912l-61.875,0l0,158.5Zm34.042,-93.287l0,-32.15l23.233,0c12.65,0 20.013,5.883 20.013,15.85c0,10.413 -11.388,16.3 -24.038,16.3l-19.208,0Z" style="fill:#fff;stroke:#fff;stroke-width:1px;"/><path d="M633.2,81.413l0,158.5l107.646,0l0,-32.154l-73.604,0l0,-126.346l-34.042,0Z" style="fill:#fff;fill-rule:nonzero;stroke:#fff;stroke-width:4.17px;"/><path d="M633.2,81.413l0,158.5l107.646,0l0,-32.154l-73.604,0l0,-126.346l-34.042,0Z" style="fill:#fff;stroke:#fff;stroke-width:1px;"/><path d="M215.625,102.513l-42.404,21.692l-51.592,25.858c-1.954,1.079 -4.346,1.079 -6.3,0l-51.579,-25.858l-42.417,-21.692c-2.346,-1.167 -3.829,-3.542 -3.829,-6.129c0,-2.583 1.483,-4.962 3.829,-6.129l94.137,-45.387c1.892,-0.933 4.125,-0.933 6.017,0l94.138,45.387c2.346,1.167 3.829,3.546 3.829,6.129c0,2.587 -1.483,4.963 -3.829,6.129Z" style="fill:#fff;fill-rule:nonzero;stroke:#fff;stroke-width:4.17px;"/><path d="M215.625,102.513l-42.404,21.692l-51.592,25.858c-1.954,1.079 -4.346,1.079 -6.3,0l-51.579,-25.858l-42.417,-21.692c-2.346,-1.167 -3.829,-3.542 -3.829,-6.129c0,-2.583 1.483,-4.962 3.829,-6.129l94.137,-45.387c1.892,-0.933 4.125,-0.933 6.017,0l94.138,45.387c2.346,1.167 3.829,3.546 3.829,6.129c0,2.587 -1.483,4.963 -3.829,6.129Z" style="fill:#fff;stroke:#fff;stroke-width:17.48px;stroke-linecap:round;"/><path d="M21.333,140.988c-2.346,1.167 -3.829,3.542 -3.829,6.129c0,2.583 1.483,4.958 3.829,6.129l42.404,21.692l51.592,25.858c1.954,1.079 4.346,1.079 6.3,0l51.579,-25.858l42.417,-21.683c2.075,-1.246 3.342,-3.471 3.342,-5.862c0,-2.392 -1.267,-4.617 -3.342,-5.863" style="fill:#fff;stroke:#fff;stroke-width:17.48px;stroke-linecap:round;"/><path d="M21.333,192.758c-2.346,1.167 -3.829,3.542 -3.829,6.129c0,2.583 1.483,4.962 3.829,6.129l93.996,47.004c1.954,1.083 4.346,1.083 6.3,0l93.996,-47.004c2.075,-1.246 3.342,-3.471 3.342,-5.862c0,-2.392 -1.267,-4.617 -3.342,-5.863" style="fill:#fff;stroke:#fff;stroke-width:17.48px;stroke-linecap:round;"/></g></svg>