<?xml version="1.0" encoding="UTF-8" standalone="no"?><!DOCTYPE svg PUBLIC "-//W3C//DTD SVG 1.1//EN" "http://www.w3.org/Graphics/SVG/1.1/DTD/svg11.dtd"><svg width="100%" height="100%" viewBox="0 0 1000 300" version="1.1" xmlns="http://www.w3.org/2000/svg" xmlns:xlink="http://www.w3.org/1999/xlink" xml:space="preserve" xmlns:serif="http://www.serif.com/" style="fill-rule:evenodd;clip-rule:evenodd;stroke-linejoin:round;stroke-miterlimit:2;"><g><path d="M246.2,78.296l0,158.499l34.042,0l-0,-56.38l27.142,-0c31.741,-0 54.743,-21.737 54.743,-51.399c-0,-29.436 -23.002,-50.72 -54.743,-50.72l-61.184,-0Zm61.184,69.966l-27.142,0l-0,-37.813l27.142,-0c11.73,-0 20.471,7.925 20.471,18.567c-0,11.095 -8.741,19.246 -20.471,19.246Z" style="fill:#2c1dff;fill-rule:nonzero;stroke:#2c1dff;stroke-width:1px;"/><path d="M549.626,82.881c-46.923,0 -82.115,35.096 -82.115,81.514c-0,46.418 35.192,81.514 82.115,81.514c46.922,0 82.114,-35.096 82.114,-81.514c0,-46.418 -35.192,-81.514 -82.114,-81.514Zm-0,32.606c26.911,-0 47.152,21.057 47.152,48.908c0,27.851 -20.241,48.908 -47.152,48.908c-26.912,0 21.445,-21.609 21.445,-49.459c-0,-27.851 -48.357,-48.357 -21.445,-48.357Z" style="fill:#2c1dff;fill-rule:nonzero;stroke:#2c1dff;stroke-width:1px;"/><path d="M415.804,81.829c-46.923,-0 -82.115,35.096 -82.115,81.514c0,46.417 35.192,81.514 82.115,81.514c46.922,-0 82.114,-35.097 82.114,-81.514c0,-46.418 -35.192,-81.514 -82.114,-81.514Zm-0,32.605c26.911,0 47.152,21.058 47.152,48.909c0,27.85 -20.241,48.908 -47.152,48.908c-26.912,0 -45.135,-17.148 -45.135,-44.998c0,-27.851 18.223,-52.819 45.135,-52.819Z" style="fill:#2c1dff;fill-rule:nonzero;stroke:#2c1dff;stroke-width:1px;"/><path d="M747.733,83.65l0,158.499l98.446,0l-0,-32.152l-64.404,-0l0,-33.512l57.504,0l-0,-32.152l-57.504,-0l0,-28.53l64.404,-0l-0,-32.153l-98.446,-0Z" style="fill:#2c1dff;fill-rule:nonzero;stroke:#2c1dff;stroke-width:1px;"/><path d="M855.647,241.572l34.042,1.132l-0,-61.588l17.481,0l36.342,60.456l49.715,5.879l-50.635,-71.543c16.101,-7.698 25.761,-23.322 25.761,-43.927c0,-27.171 -23.691,-48.908 -50.832,-48.908l-61.874,-0l-0,158.499Zm34.042,-93.288l-0,-32.153l23.231,0c12.651,0 20.011,5.887 20.011,15.85c0,10.416 -11.385,16.303 -24.036,16.303l-19.206,0Z" style="fill:#2c1dff;fill-rule:nonzero;stroke:#2c1dff;stroke-width:1px;"/><path d="M633.201,81.412l0,158.499l107.646,0l0,-32.152l-73.604,-0l0,-126.347l-34.042,0Z" style="fill:#2c1dff;fill-rule:nonzero;stroke:#2c1dff;stroke-width:1px;"/><path d="M215.625,102.513l-42.406,21.693l-51.592,25.857c-1.953,1.078 -4.343,1.078 -6.296,-0l-51.58,-25.857l-42.418,-21.693c-2.344,-1.168 -3.827,-3.543 -3.827,-6.129c0,-2.586 1.483,-4.961 3.827,-6.129l94.139,-45.387c1.891,-0.934 4.123,-0.934 6.014,-0l94.139,45.387c2.344,1.168 3.827,3.543 3.827,6.129c0,2.586 -1.483,4.961 -3.827,6.129" style="fill:#fcf8f8;fill-rule:nonzero;stroke:#2c1dff;stroke-width:17.48px;stroke-linecap:round;stroke-miterlimit:4;"/><path d="M21.333,140.987c-2.344,1.167 -3.827,3.543 -3.827,6.129c0,2.585 1.483,4.961 3.827,6.128l42.406,21.694l51.592,25.856c1.953,1.081 4.344,1.081 6.296,0l51.581,-25.856l42.417,-21.682c2.074,-1.246 3.342,-3.471 3.342,-5.863c0,-2.391 -1.268,-4.617 -3.342,-5.863" style="fill:none;fill-rule:nonzero;stroke:#52a1ff;stroke-width:17.48px;stroke-linecap:round;stroke-miterlimit:4;"/><path d="M21.333,192.758c-2.344,1.168 -3.827,3.543 -3.827,6.129c0,2.586 1.483,4.961 3.827,6.129l93.998,47.006c1.953,1.08 4.344,1.08 6.296,0l93.998,-47.006c2.074,-1.246 3.342,-3.472 3.342,-5.863c0,-2.392 -1.268,-4.617 -3.342,-5.863" style="fill:none;fill-rule:nonzero;stroke:#2c1dff;stroke-width:17.48px;stroke-linecap:round;stroke-miterlimit:4;"/></g></svg>